:SAMPLES-PER-SECOND 30
:FULLY-SPECIFIED
:DEGREES
740
root  -60.2937 40.4512 -0.864008 -175.341 -89.4146 174.603
RightUpLeg  -10.2408 -2.99745 -2.83189
RightLeg  7.26468 16.8695 -0.568179
RightFoot  3.01197 -0.410705 3.42304
RightToes  2.96859e-009 0 -3.6325e-017
Spine  13.7098 -0.459032 9.88344
Spine1  14.4673 3.81739 -10.0974
HEad  -12.7801 -0.913565 -1.87996
LeftShoulder1  1.71465 -6.97947 -8.93686
LeftArm  -29.0963 -74.346 -24.9601
LeftForeArm  -18.3532 -6.05668 -2.15436
LeftHand  -0.1886 10.4509 -2.88944
RightShoulder  0.970127 4.11062 4.89728
RightArm  -34.6068 73.5338 17.4224
RightForeArm  -37.5908 -4.90502 0.0756853
RightHand  0.0528708 1.14654 0.833383
LeftUpLeg  -12.011 4.20005 -0.244896
LeftLeg  4.94374 -5.88001 -1.08641
LeftFoot  8.62778 -0.958279 5.13982
LeftToes  3.24686e-010 -7.02549e-012 1.39809e-011
741
root  -60.2803 40.4606 -1.06218 177.472 -89.3204 -178.132
RightUpLeg  -10.3076 -2.9248 -2.50894
RightLeg  7.19595 16.8718 -0.596069
RightFoot  3.06405 -0.363721 3.04333
RightToes  2.96859e-009 0 -3.6325e-017
Spine  13.7428 -0.563602 9.91449
Spine1  14.5328 3.73926 -10.186
HEad  -11.6838 0.524769 -2.49056
LeftShoulder1  1.65749 -6.70772 -8.80604
LeftArm  -30.9594 -73.3398 -23.2079
LeftForeArm  -17.5526 -7.44479 -1.84819
LeftHand  -0.18921 10.0406 -3.20202
RightShoulder  0.930726 4.00204 4.51433
RightArm  -33.9211 72.2006 18.7691
RightForeArm  -36.3806 -4.45072 -0.602677
RightHand  0.051513 1.81768 0.663682
LeftUpLeg  -12.0533 4.39912 0.0831045
LeftLeg  4.81739 -6.07828 -1.1567
LeftFoot  8.89166 -0.939906 4.95966
LeftToes  3.24686e-010 -7.02549e-012 1.39809e-011
742
root  -60.261 40.4726 -1.27531 137.576 -89.7249 -138.406
RightUpLeg  -9.92638 -2.94137 -1.9427
RightLeg  6.89761 16.3629 -0.682621
RightFoot  3.22303 -0.320475 2.67855
RightToes  2.96859e-009 0 -3.6325e-017
Spine  13.6021 -0.797447 9.35466
Spine1  14.8767 3.02039 -8.89381
HEad  -10.1176 2.2767 -3.34122
LeftShoulder1  1.61951 -6.11507 -9.46951
LeftArm  -32.5235 -71.271 -23.2352
LeftForeArm  -16.3119 -10.1821 -1.02136
LeftHand  -0.181974 9.2737 -3.72682
RightShoulder  0.87685 4.01785 3.6682
RightArm  -32.5644 69.7906 22.4468
RightForeArm  -33.4772 -0.54083 -1.59444
RightHand  0.0396692 2.42883 0.386126
LeftUpLeg  -11.9445 4.72006 0.631183
LeftLeg  4.80384 -7.0044 -1.21727
LeftFoot  9.0606 -0.887409 4.62258
LeftToes  3.24686e-010 -7.02549e-012 1.39809e-011
743
root  -60.2405 40.475 -1.4982 -163.636 -89.809 163.064
RightUpLeg  -10.3757 -2.91946 -1.86528
RightLeg  7.17445 16.3328 -0.589077
RightFoot  3.10447 -0.285122 2.4165
RightToes  2.96859e-009 0 -3.6325e-017
Spine  13.0029 -0.882134 8.78538
Spine1  15.15 2.71696 -8.53111
HEad  -8.32481 4.37083 -4.4061
LeftShoulder1  1.56006 -5.67791 -9.64361
LeftArm  -35.8002 -67.3542 -25.0803
LeftForeArm  -13.752 -14.8619 -1.02012
LeftHand  -0.100959 7.56446 -2.86199
RightShoulder  0.885265 3.68621 4.41134
RightArm  -32.3384 66.0592 26.5262
RightForeArm  -27.9843 8.77784 -1.26308
RightHand  -0.108176 2.45909 -1.76664
LeftUpLeg  -12.0729 4.60344 0.685606
LeftLeg  4.38267 -6.92964 -1.09915
LeftFoot  9.41249 -0.820659 4.16452
LeftToes  3.24686e-010 -7.02549e-012 1.39809e-011
744
root  -60.2248 40.4755 -1.7511 12.5975 -89.9978 -13.2515
RightUpLeg  -10.3366 -2.87705 -1.45839
RightLeg  7.31703 16.0637 -0.465221
RightFoot  3.08301 -0.222477 1.92388
RightToes  2.96859e-009 0 -3.6325e-017
Spine  12.6398 -0.960026 8.50715
Spine1  15.3601 2.34722 -7.86444
HEad  -6.70818 6.34084 -5.51001
LeftShoulder1  1.56816 -5.15975 -10.9013
LeftArm  -42.7599 -61.9436 -27.7007
LeftForeArm  -4.63606 -21.457 -3.73022
LeftHand  -0.0363201 5.75036 -0.918001
RightShoulder  0.936088 3.27407 6.10822
RightArm  -36.6814 60.7873 29.5735
RightForeArm  -17.0819 20.0708 2.41498
RightHand  -0.327103 3.20762 -4.66966
LeftUpLeg  -12.0699 5.02948 1.19716
LeftLeg  4.49064 -7.61098 -1.31955
LeftFoot  9.41233 -0.754469 3.80541
LeftToes  3.24686e-010 -7.02549e-012 1.39809e-011
745
root  -60.2042 40.4823 -2.03026 5.59967 -89.8877 -6.6528
RightUpLeg  -9.95045 -3.12058 -1.22769
RightLeg  7.4845 16.095 -0.110817
RightFoot  2.84625 -0.155176 1.40198
RightToes  2.96859e-009 0 -3.6325e-017
Spine  12.3158 -0.831849 7.82062
Spine1  16.2022 2.03524 -6.80439
HEad  -5.92801 8.04633 -6.24189
LeftShoulder1  1.53425 -4.22411 -12.8019
LeftArm  -43.5297 -56.545 -29.8421
LeftForeArm  0.805113 -28.2198 -6.17085
LeftHand  -0.0297447 4.653 1.12708
RightShoulder  0.969633 2.44534 8.97537
RightArm  -37.2547 55.4385 31.2633
RightForeArm  -9.84472 31.3052 7.6621
RightHand  -0.56149 4.48009 -6.84687
LeftUpLeg  -11.3966 5.16917 1.54226
LeftLeg  3.90196 -7.95132 -1.11527
LeftFoot  9.61747 -0.641989 3.15275
LeftToes  3.24686e-010 -7.02549e-012 1.39809e-011
746
root  -60.1566 40.4425 -2.32823 -17.3972 -89.175 16.2366
RightUpLeg  -10.0748 -3.51638 -1.21242
RightLeg  8.08037 15.5592 0.394992
RightFoot  2.05521 -0.154825 1.44035
RightToes  2.96859e-009 0 -3.6325e-017
Spine  11.2637 -0.7334 7.90096
Spine1  17.8065 2.11416 -6.4028
HEad  -5.6008 8.86892 -7.06222
LeftShoulder1  1.58783 -3.84735 -14.7329
LeftArm  -40.5655 -50.6199 -32.1595
LeftForeArm  3.09417 -35.2023 -7.74506
LeftHand  -0.0450434 4.08763 2.2111
RightShoulder  0.890949 1.02456 12.7183
RightArm  -31.8394 49.5197 31.5991
RightForeArm  -9.36904 43.5276 11.2836
RightHand  -0.914414 5.78485 -9.80103
LeftUpLeg  -11.5273 5.00229 1.66392
LeftLeg  4.05386 -8.47139 -0.981409
LeftFoot  9.49479 -0.517069 2.49581
LeftToes  3.24686e-010 -7.02549e-012 1.39809e-011
747
root  -60.0866 40.3697 -2.64138 -7.61804 -88.3188 5.95741
RightUpLeg  -9.94973 -3.93221 -1.14269
RightLeg  9.00669 14.821 1.04719
RightFoot  1.14734 -0.187486 1.78385
RightToes  2.96859e-009 0 -3.6325e-017
Spine  11.8886 -0.913741 7.80033
Spine1  17.5213 1.71904 -5.81403
HEad  -5.22887 10.1064 -7.96524
LeftShoulder1  1.55122 -3.04495 -17.038
LeftArm  -36.5991 -43.2502 -34.2736
LeftForeArm  3.67219 -41.3094 -9.61028
LeftHand  -0.0647395 3.80218 3.43233
RightShoulder  0.749028 -0.180442 15.8343
RightArm  -26.6021 42.0344 33.3232
RightForeArm  -4.56702 55.3083 16.8462
RightHand  -1.18586 6.77114 -11.6273
LeftUpLeg  -11.8018 5.18402 2.00359
LeftLeg  5.24215 -9.47761 -1.2098
LeftFoot  8.86386 -0.407106 1.9816
LeftToes  3.24686e-010 -7.02549e-012 1.39809e-011
748
root  -59.9989 40.3205 -2.98791 -9.75868 -86.9693 7.62311
RightUpLeg  -9.75941 -4.35169 -1.26249
RightLeg  9.81354 13.5477 1.43057
RightFoot  0.231576 -0.189486 1.88359
RightToes  2.96859e-009 0 -3.6325e-017
Spine  13.1794 -1.42773 6.88009
Spine1  16.5469 0.853331 -5.08777
HEad  -4.89503 12.0797 -9.19706
LeftShoulder1  1.29746 -1.54104 -19.1854
LeftArm  -32.408 -35.2884 -35.9452
LeftForeArm  4.25649 -46.0882 -11.3326
LeftHand  -0.0841368 3.36754 4.02533
RightShoulder  0.656188 -0.865166 18.5328
RightArm  -21.6243 33.399 35.4985
RightForeArm  3.83519 64.7496 24.7637
RightHand  -1.3526 6.90528 -13.0489
LeftUpLeg  -11.6399 4.70379 1.92511
LeftLeg  5.24455 -10.4347 -0.830411
LeftFoot  8.66794 -0.204755 0.862258
LeftToes  3.24686e-010 -7.02549e-012 1.39809e-011
749
root  -59.8734 40.2344 -3.29385 -8.46693 -84.7022 6.29749
RightUpLeg  -10.2402 -5.35893 -1.52217
RightLeg  11.0037 12.0772 1.95887
RightFoot  -0.743886 -0.159361 1.65895
RightToes  2.96859e-009 0 -3.6325e-017
Spine  13.1507 -1.82895 7.15338
Spine1  17.1118 0.363602 -4.83596
HEad  -5.99321 12.0369 -9.55561
LeftShoulder1  1.13625 -0.547047 -21.6815
LeftArm  -28.2181 -28.8446 -37.7907
LeftForeArm  5.4474 -48.1758 -12.1465
LeftHand  -0.101931 2.75625 4.04401
RightShoulder  0.488725 -1.73038 21.5605
RightArm  -17.6169 24.1171 35.3905
RightForeArm  12.8016 71.0368 34.7536
RightHand  -1.57405 7.56576 -14.3551
LeftUpLeg  -12.5544 3.81472 1.64459
LeftLeg  6.09097 -11.8468 -0.755908
LeftFoot  8.18596 -0.0650334 0.0864732
LeftToes  3.24686e-010 -7.02549e-012 1.39809e-011
